<?xml version="1.0" encoding="utf-8"?>
<!-- Generator: Adobe Illustrator 26.3.1, SVG Export Plug-In . SVG Version: 6.00 Build 0)  -->
<svg version="1.1" id="Layer_1" xmlns="http://www.w3.org/2000/svg" xmlns:xlink="http://www.w3.org/1999/xlink" x="0px" y="0px"
	 viewBox="0 0 300 300" style="enable-background:new 0 0 300 300;" xml:space="preserve">
<style type="text/css">
	.st0{fill:none;}
	.st1{fill:#393D42;}
	.st2{fill:url(#SVGID_1_);}
	.st3{fill:url(#SVGID_00000142148257814630505150000015836348595194006419_);}
	.st4{fill:url(#SVGID_00000039834518807643336420000002510213253374218678_);}
	.st5{fill:url(#SVGID_00000134935001214043752630000010560009635177405616_);}
	.st6{fill:url(#SVGID_00000047755157451172377330000000515551856557309058_);}
</style>
<g>
	<path class="st0" d="M115.79,155.23c0,0,0.05-0.06,0.13-0.14v0.1C115.92,155.18,115.89,155.19,115.79,155.23z"/>
	<g>
		<path class="st1" d="M60.11,285.86v7.16H39.78c-2,0-3.89-0.46-5.61-1.32c-2.52-1.26-4.58-3.32-5.78-5.84
			c-0.86-1.72-1.32-3.61-1.32-5.61v-27.32h7.16v28c0.34,2.52,2.35,4.52,4.87,4.87L60.11,285.86z"/>
		<path class="st1" d="M79.58,292.96h0.11l-0.11,0.11V292.96z M119.67,252.81l-15.52,20.1l-0.86,1.09v18.9h-7.16v-18.78l-0.97-1.2
			l-15.52-20.1h9.05l11,14.26l11-14.26H119.67z M119.61,292.96h0.06v0.11L119.61,292.96z"/>
		<path class="st1" d="M191.88,252.93v40.09l-7.16-5.5l-25.77-19.87v25.37h-7.16v-39.97l7.16,5.5l25.77,19.87v-25.54L191.88,252.93z
			"/>
		<path class="st1" d="M224.81,293.01h0.11l-0.11,0.11V293.01z M265.02,252.93l-15.52,20.1l15.46,19.99h-9.05l-10.94-14.14
			l-10.94,14.14h-9.05l15.41-19.99l-15.52-20.1h9.05l11,14.26l11-14.26h8.99H265.02z M264.9,293.13l-0.06-0.11h0.06V293.13z"/>
	</g>
	<g>
		<linearGradient id="SVGID_1_" gradientUnits="userSpaceOnUse" x1="180.9985" y1="170.6563" x2="181.0813" y2="170.6563">
			<stop  offset="0" style="stop-color:#F89521"/>
			<stop  offset="0.0621" style="stop-color:#F18D24"/>
			<stop  offset="0.707" style="stop-color:#CA452E"/>
			<stop  offset="1" style="stop-color:#BE202E"/>
		</linearGradient>
		<path class="st2" d="M181,170.7c0.06-0.02,0.08-0.03,0.08-0.03v-0.06C181.03,170.66,181,170.7,181,170.7z"/>
		
			<linearGradient id="SVGID_00000066488229100941555770000006712035685880344225_" gradientUnits="userSpaceOnUse" x1="201.4154" y1="143.5658" x2="212.0161" y2="143.5658">
			<stop  offset="0" style="stop-color:#F89521"/>
			<stop  offset="0.0621" style="stop-color:#F18D24"/>
			<stop  offset="0.707" style="stop-color:#CA452E"/>
			<stop  offset="1" style="stop-color:#BE202E"/>
		</linearGradient>
		<path style="fill:url(#SVGID_00000066488229100941555770000006712035685880344225_);" d="M206.72,142.67
			c-3.09-3.15-4.62-6.56-4.62-6.56s-2.14,9.56,1.15,13.37c3.18,3.68,6.93,0.1,8.77-2.95c-0.95-0.44-1.82-0.98-2.63-1.56
			c-0.01,0.53-0.18,1.06-0.56,1.48c-0.84,0.96-2.29,1.05-3.25,0.22c-0.96-0.84-1.05-2.29-0.22-3.25
			C205.73,142.99,206.21,142.75,206.72,142.67z"/>
		
			<linearGradient id="SVGID_00000019655835006169665810000014010897220568437401_" gradientUnits="userSpaceOnUse" x1="230.6542" y1="39.9263" x2="128.4893" y2="156.3643">
			<stop  offset="0" style="stop-color:#F89521"/>
			<stop  offset="0.0621" style="stop-color:#F18D24"/>
			<stop  offset="0.707" style="stop-color:#CA452E"/>
			<stop  offset="1" style="stop-color:#BE202E"/>
		</linearGradient>
		<path style="fill:url(#SVGID_00000019655835006169665810000014010897220568437401_);" d="M164.61,6.87
			c-38.38,0-72.08,19.95-91.33,50.05C65.83,68.55,60.56,81.7,58.02,95.78c0,0-19.26,18.52-26.13,28.82
			c55.67-48.87,119.34-45.8,119.34-45.8s-2.18,5.52-3.1,12.56c-0.46,3.49-0.61,7.35-0.03,11.09c0.53-4.09,1.22-7.67,2.06-10.9
			c2.94-11.33,7.64-18.15,12.76-26.62c0.13-0.21,0.27-0.43,0.39-0.65c0.03,0.81,0.05,1.61,0.05,2.41c-0.02,3.26-0.31,6.65-1.2,11.51
			c1.17-1.87,1.71-4.08,2.12-6.62c0.59-3.68,0.87-8.07,2.29-13.28c1.99-7.38,4.03-13.05,8.95-19.04c0.01-0.02,0.01-0.03,0.01-0.03
			c1.79-2.18,3.98-4.41,6.7-6.77c1.19,4.61-5.09,1.79-6.59,11.85c1.28-2.47,3.42-5.8,5.36-7.21c-3.55,3.39-5.52,10.95-5.63,11.42
			c-0.01,0.01,0,0.01,0,0.01c0.31,9.78,9.04,25.61,9.3,36.04c1.74-1.81,21.1-23.37,31.99-30.17c0.47,1.26-0.29,2.09-2.79,3.37
			c-5.41,2.77-10.88,11.86-12.43,16.98c2.39-3.72,3.73-5.85,4.6-6.58c-2.74,8.53-2.77,15.08-4.04,20.89
			c-0.76,3.51-1.14,5.08-1.68,6.57c-2.53-1.47-7.34-4.13-10.78-5.19c4.6,2.03,10.21,6.59,10.21,6.59
			c7.64,6.19,15.48,13.15,18.87,23.04c1.51,4.39,0.49,12.12-1.14,21.91c-0.21,1.24,0.57,6.69,2.28,12.13
			c1.28,4.11,6.21,14.78,6.21,18.06s-3.61,5.8-7.22,4.45c1.43-0.09,2.45-0.31,2.45-1.41c0-0.88-1.32-0.92-2.11-0.64
			c-0.14-1.95-1.05-2.45-0.96-4.31c0.05-1.28-0.82-2.67-1.13-3.13c0.21,0.38,0.61,1.56,0.38,4.61c-0.16,2.2,2.35,3.32-0.31,6.35
			c-1.64,1.43-2.96,2.32-5.7,2.44c-2.96,3.12-5.75,4.51-10.02,4.1c5.01-1.55,5.01-4.18,5.01-4.18s-7.47,4.93-13.7,3.94
			c4.76-1.65,7.54-3.86,7.54-3.86s-4.6,0.33-8.29-3.12c-3.69-3.46-8.55-9.26-11.83-5.82c-1.92,2.02-5.36,7.71,1.81,17.23
			c1.84,2.44,5.08,1.22,8.12,0c-0.29,0.22-4.95,3.68-8.53,3.76c0.06,1.36-1.31,2.31-2.46,2.23c-1.75-0.1-2.24,0.82-4.26,1.76
			c-3.66,1.7-7.6,2.35-11.54,0.42c7.2,0.98,8.26-2.25,8.36-3.25c-1.42,2.01-3.86,3.16-6.94,2.61c1.86-0.55,3.2-0.91,3.46-1.68
			c0.27-0.79-1.19-0.85-2.09-1.94c-1.01-1.24-2.08-2.87-2.91-4.13c0.08,0.83,0.23,1.71,0.43,2.33c-1.68-2.11-3.36-6.81-3.47-7.11
			l0.05,0.05c-1.64-3.27-2.92-7.02-5.16-9.26c-3.48,5.84-4.14,10.98-4.86,20.17c-2.03-5.81-1.81-12.08-0.93-17.26
			c-5.03,10.91-3.65,23.38-1.87,30.46c-6.79-15.04-24.75-22.86-19.71-49.14c-3.56,6.56-2.66,18.7-1.74,22.92
			c-14.48-10.37-10.06-34.36-9.83-35.55c-0.46,1.21-9.45,25.39,4.61,41.96c11.24,13.25,25.58,35.79,8.42,53.9
			c12.57-6.82,18.16-19.96,18.16-19.96c5.66,0.92,11.49,1.4,17.42,1.4c59.82,0,108.33-48.51,108.33-108.33
			C272.93,55.38,224.43,6.87,164.61,6.87z"/>
		
			<linearGradient id="SVGID_00000026859485833813840620000016817773202388544384_" gradientUnits="userSpaceOnUse" x1="184.5343" y1="84.6501" x2="184.6659" y2="84.6501">
			<stop  offset="0" style="stop-color:#F89521"/>
			<stop  offset="0.0621" style="stop-color:#F18D24"/>
			<stop  offset="0.707" style="stop-color:#CA452E"/>
			<stop  offset="1" style="stop-color:#BE202E"/>
		</linearGradient>
		<path style="fill:url(#SVGID_00000026859485833813840620000016817773202388544384_);" d="M184.53,84.72
			c0.1-0.03,0.13-0.05,0.13-0.05v-0.1C184.58,84.66,184.53,84.72,184.53,84.72z"/>
		
			<linearGradient id="SVGID_00000034810460267505319040000007256066052054875815_" gradientUnits="userSpaceOnUse" x1="216.8795" y1="167.0519" x2="216.9562" y2="167.0519">
			<stop  offset="0" style="stop-color:#F89521"/>
			<stop  offset="0.0621" style="stop-color:#F18D24"/>
			<stop  offset="0.707" style="stop-color:#CA452E"/>
			<stop  offset="1" style="stop-color:#BE202E"/>
		</linearGradient>
		<path style="fill:url(#SVGID_00000034810460267505319040000007256066052054875815_);" d="M216.96,167.11
			c-0.05-0.08-0.08-0.11-0.08-0.11S216.91,167.04,216.96,167.11z"/>
	</g>
	<path class="st0" d="M115.82,196.44c0,0,0.02-0.03,0.06-0.07v0.05C115.89,196.41,115.87,196.42,115.82,196.44z"/>
</g>
</svg>
