<?xml version="1.0" encoding="UTF-8" standalone="no"?>
<svg
   xmlns:dc="http://purl.org/dc/elements/1.1/"
   xmlns:cc="http://creativecommons.org/ns#"
   xmlns:rdf="http://www.w3.org/1999/02/22-rdf-syntax-ns#"
   xmlns:svg="http://www.w3.org/2000/svg"
   xmlns="http://www.w3.org/2000/svg"
   xmlns:sodipodi="http://sodipodi.sourceforge.net/DTD/sodipodi-0.dtd"
   xmlns:inkscape="http://www.inkscape.org/namespaces/inkscape"
   height="600"
   width="600"
   inkscape:version="1.0 (4035a4fb49, 2020-05-01)"
   sodipodi:docname="lynx-offgrid-white.svg"
   xml:space="preserve"
   viewBox="0 0 600 600"
   y="0px"
   x="0px"
   id="Layer_1"
   version="1.1"><metadata
   id="metadata995"><rdf:RDF><cc:Work
       rdf:about=""><dc:format>image/svg+xml</dc:format><dc:type
         rdf:resource="http://purl.org/dc/dcmitype/StillImage" /><dc:title></dc:title></cc:Work></rdf:RDF></metadata><defs
   id="defs993">
		
		
		
		
	</defs><sodipodi:namedview
   inkscape:current-layer="g988"
   inkscape:window-maximized="1"
   inkscape:window-y="-8"
   inkscape:window-x="-8"
   inkscape:cy="248.55388"
   inkscape:cx="372.67152"
   inkscape:zoom="0.31723122"
   showgrid="false"
   id="namedview991"
   inkscape:window-height="837"
   inkscape:window-width="1600"
   inkscape:pageshadow="2"
   inkscape:pageopacity="0"
   guidetolerance="10"
   gridtolerance="10"
   objecttolerance="10"
   borderopacity="1"
   bordercolor="#666666"
   pagecolor="#ffffff"
   inkscape:document-rotation="0" />
<style
   id="style915"
   type="text/css">
	.st0{fill:none;}
	.st1{fill:#393D42;}
	.st2{fill:url(#SVGID_1_);}
	.st3{fill:url(#SVGID_00000142148257814630505150000015836348595194006419_);}
	.st4{fill:url(#SVGID_00000039834518807643336420000002510213253374218678_);}
	.st5{fill:url(#SVGID_00000134935001214043752630000010560009635177405616_);}
	.st6{fill:url(#SVGID_00000047755157451172377330000000515551856557309058_);}
</style>
<g
   id="g988">
	<path
   id="path917"
   d="m 115.79,155.23 c 0,0 0.05,-0.06 0.13,-0.14 v 0.1 c 0,-0.01 -0.03,0 -0.13,0.04 z"
   class="st0" />
	
	
	<path
   id="path986"
   d="m 115.82,196.44 c 0,0 0.02,-0.03 0.06,-0.07 v 0.05 c 0.01,-0.01 -0.01,0 -0.06,0.02 z"
   class="st0" />
<g
   transform="matrix(1.7932023,0,0,1.7932023,26.6801,12.534515)"
   id="g984">
		<linearGradient
   y2="170.6563"
   x2="181.0813"
   y1="170.6563"
   x1="180.9985"
   gradientUnits="userSpaceOnUse"
   id="SVGID_1_">
			<stop
   id="stop929"
   style="stop-color:#F89521"
   offset="0" />
			<stop
   id="stop931"
   style="stop-color:#F18D24"
   offset="0.0621" />
			<stop
   id="stop933"
   style="stop-color:#CA452E"
   offset="0.707" />
			<stop
   id="stop935"
   style="stop-color:#BE202E"
   offset="1" />
		</linearGradient>
		<path
   id="path938"
   d="m 181,170.7 c 0.06,-0.02 0.08,-0.03 0.08,-0.03 v -0.06 c -0.05,0.05 -0.08,0.09 -0.08,0.09 z"
   class="st2"
   style="fill:url(#SVGID_1_)" />
		
			<linearGradient
   y2="143.5658"
   x2="212.0161"
   y1="143.5658"
   x1="201.41541"
   gradientUnits="userSpaceOnUse"
   id="SVGID_00000066488229100941555770000006712035685880344225_">
			<stop
   id="stop940"
   style="stop-color:#F89521"
   offset="0" />
			<stop
   id="stop942"
   style="stop-color:#F18D24"
   offset="0.0621" />
			<stop
   id="stop944"
   style="stop-color:#CA452E"
   offset="0.707" />
			<stop
   id="stop946"
   style="stop-color:#BE202E"
   offset="1" />
		</linearGradient>
		<path
   id="path949"
   d="m 206.72,142.67 c -3.09,-3.15 -4.62,-6.56 -4.62,-6.56 0,0 -2.14,9.56 1.15,13.37 3.18,3.68 6.93,0.1 8.77,-2.95 -0.95,-0.44 -1.82,-0.98 -2.63,-1.56 -0.01,0.53 -0.18,1.06 -0.56,1.48 -0.84,0.96 -2.29,1.05 -3.25,0.22 -0.96,-0.84 -1.05,-2.29 -0.22,-3.25 0.37,-0.43 0.85,-0.67 1.36,-0.75 z"
   style="fill:url(#SVGID_00000066488229100941555770000006712035685880344225_)" />
		
			<linearGradient
   y2="156.3643"
   x2="128.4893"
   y1="39.9263"
   x1="230.65421"
   gradientUnits="userSpaceOnUse"
   id="SVGID_00000019655835006169665810000014010897220568437401_">
			<stop
   id="stop951"
   style="stop-color:#F89521"
   offset="0" />
			<stop
   id="stop953"
   style="stop-color:#F18D24"
   offset="0.0621" />
			<stop
   id="stop955"
   style="stop-color:#CA452E"
   offset="0.707" />
			<stop
   id="stop957"
   style="stop-color:#BE202E"
   offset="1" />
		</linearGradient>
		<path
   id="path960"
   d="m 164.61,6.87 c -38.38,0 -72.08,19.95 -91.33,50.05 -7.45,11.63 -12.72,24.78 -15.26,38.86 0,0 -19.26,18.52 -26.13,28.82 55.67,-48.87 119.34,-45.8 119.34,-45.8 0,0 -2.18,5.52 -3.1,12.56 -0.46,3.49 -0.61,7.35 -0.03,11.09 0.53,-4.09 1.22,-7.67 2.06,-10.9 2.94,-11.33 7.64,-18.15 12.76,-26.62 0.13,-0.21 0.27,-0.43 0.39,-0.65 0.03,0.81 0.05,1.61 0.05,2.41 -0.02,3.26 -0.31,6.65 -1.2,11.51 1.17,-1.87 1.71,-4.08 2.12,-6.62 0.59,-3.68 0.87,-8.07 2.29,-13.28 1.99,-7.38 4.03,-13.05 8.95,-19.04 0.01,-0.02 0.01,-0.03 0.01,-0.03 1.79,-2.18 3.98,-4.41 6.7,-6.77 1.19,4.61 -5.09,1.79 -6.59,11.85 1.28,-2.47 3.42,-5.8 5.36,-7.21 -3.55,3.39 -5.52,10.95 -5.63,11.42 -0.01,0.01 0,0.01 0,0.01 0.31,9.78 9.04,25.61 9.3,36.04 1.74,-1.81 21.1,-23.37 31.99,-30.17 0.47,1.26 -0.29,2.09 -2.79,3.37 -5.41,2.77 -10.88,11.86 -12.43,16.98 2.39,-3.72 3.73,-5.85 4.6,-6.58 -2.74,8.53 -2.77,15.08 -4.04,20.89 -0.76,3.51 -1.14,5.08 -1.68,6.57 -2.53,-1.47 -7.34,-4.13 -10.78,-5.19 4.6,2.03 10.21,6.59 10.21,6.59 7.64,6.19 15.48,13.15 18.87,23.04 1.51,4.39 0.49,12.12 -1.14,21.91 -0.21,1.24 0.57,6.69 2.28,12.13 1.28,4.11 6.21,14.78 6.21,18.06 0,3.28 -3.61,5.8 -7.22,4.45 1.43,-0.09 2.45,-0.31 2.45,-1.41 0,-0.88 -1.32,-0.92 -2.11,-0.64 -0.14,-1.95 -1.05,-2.45 -0.96,-4.31 0.05,-1.28 -0.82,-2.67 -1.13,-3.13 0.21,0.38 0.61,1.56 0.38,4.61 -0.16,2.2 2.35,3.32 -0.31,6.35 -1.64,1.43 -2.96,2.32 -5.7,2.44 -2.96,3.12 -5.75,4.51 -10.02,4.1 5.01,-1.55 5.01,-4.18 5.01,-4.18 0,0 -7.47,4.93 -13.7,3.94 4.76,-1.65 7.54,-3.86 7.54,-3.86 0,0 -4.6,0.33 -8.29,-3.12 -3.69,-3.46 -8.55,-9.26 -11.83,-5.82 -1.92,2.02 -5.36,7.71 1.81,17.23 1.84,2.44 5.08,1.22 8.12,0 -0.29,0.22 -4.95,3.68 -8.53,3.76 0.06,1.36 -1.31,2.31 -2.46,2.23 -1.75,-0.1 -2.24,0.82 -4.26,1.76 -3.66,1.7 -7.6,2.35 -11.54,0.42 7.2,0.98 8.26,-2.25 8.36,-3.25 -1.42,2.01 -3.86,3.16 -6.94,2.61 1.86,-0.55 3.2,-0.91 3.46,-1.68 0.27,-0.79 -1.19,-0.85 -2.09,-1.94 -1.01,-1.24 -2.08,-2.87 -2.91,-4.13 0.08,0.83 0.23,1.71 0.43,2.33 -1.68,-2.11 -3.36,-6.81 -3.47,-7.11 l 0.05,0.05 c -1.64,-3.27 -2.92,-7.02 -5.16,-9.26 -3.48,5.84 -4.14,10.98 -4.86,20.17 -2.03,-5.81 -1.81,-12.08 -0.93,-17.26 -5.03,10.91 -3.65,23.38 -1.87,30.46 -6.79,-15.04 -24.75,-22.86 -19.71,-49.14 -3.56,6.56 -2.66,18.7 -1.74,22.92 -14.48,-10.37 -10.06,-34.36 -9.83,-35.55 -0.46,1.21 -9.45,25.39 4.61,41.96 11.24,13.25 25.58,35.79 8.42,53.9 12.57,-6.82 18.16,-19.96 18.16,-19.96 5.66,0.92 11.49,1.4 17.42,1.4 59.82,0 108.33,-48.51 108.33,-108.33 C 272.93,55.38 224.43,6.87 164.61,6.87 Z"
   style="fill:url(#SVGID_00000019655835006169665810000014010897220568437401_)" />
		
			<linearGradient
   y2="84.650101"
   x2="184.66589"
   y1="84.650101"
   x1="184.5343"
   gradientUnits="userSpaceOnUse"
   id="SVGID_00000026859485833813840620000016817773202388544384_">
			<stop
   id="stop962"
   style="stop-color:#F89521"
   offset="0" />
			<stop
   id="stop964"
   style="stop-color:#F18D24"
   offset="0.0621" />
			<stop
   id="stop966"
   style="stop-color:#CA452E"
   offset="0.707" />
			<stop
   id="stop968"
   style="stop-color:#BE202E"
   offset="1" />
		</linearGradient>
		<path
   id="path971"
   d="m 184.53,84.72 c 0.1,-0.03 0.13,-0.05 0.13,-0.05 v -0.1 c -0.08,0.09 -0.13,0.15 -0.13,0.15 z"
   style="fill:url(#SVGID_00000026859485833813840620000016817773202388544384_)" />
		
			<linearGradient
   y2="167.0519"
   x2="216.95621"
   y1="167.0519"
   x1="216.8795"
   gradientUnits="userSpaceOnUse"
   id="SVGID_00000034810460267505319040000007256066052054875815_">
			<stop
   id="stop973"
   style="stop-color:#F89521"
   offset="0" />
			<stop
   id="stop975"
   style="stop-color:#F18D24"
   offset="0.0621" />
			<stop
   id="stop977"
   style="stop-color:#CA452E"
   offset="0.707" />
			<stop
   id="stop979"
   style="stop-color:#BE202E"
   offset="1" />
		</linearGradient>
		<path
   id="path982"
   d="m 216.96,167.11 c -0.05,-0.08 -0.08,-0.11 -0.08,-0.11 0,0 0.03,0.04 0.08,0.11 z"
   style="fill:url(#SVGID_00000034810460267505319040000007256066052054875815_)" />
	</g><g
   transform="matrix(0.72044892,0,0,0.72044892,-207.36109,427.18324)"
   style="fill:#666666;fill-opacity:1"
   id="g1648"><path
     style="fill:#666666;fill-opacity:1;stroke:none;stroke-width:2.36003;stroke-opacity:1"
     id="path919"
     d="m 372.3727,154.87896 v 16.89779 h -47.97935 c -4.72005,0 -9.1805,-1.08562 -13.23975,-3.11524 -5.94726,-2.97364 -10.80892,-7.83529 -13.64095,-13.78255 -2.02962,-4.05926 -3.11524,-8.51971 -3.11524,-13.23976 V 77.16326 h 16.89779 v 66.08075 c 0.80241,5.94728 5.54607,10.66733 11.49333,11.49334 z"
     class="st1" /><path
     style="fill:#666666;fill-opacity:1;stroke-width:2.36003"
     id="path921"
     d="m 372.43571,171.71775 h 0.25959 l -0.25959,0.2596 z m 94.61348,-94.7551 -36.62762,47.43655 -2.02962,2.57243 v 44.60452 h -16.8978 v -44.32131 l -2.28922,-2.83204 -36.62762,-47.43655 h 21.35824 l 25.96029,33.654 25.96031,-33.654 h 21.19304 z m -0.14161,94.7551 h 0.14161 v 0.2596 z"
     class="st1" /><path
     style="fill:#666666;fill-opacity:1;stroke-width:2.36003"
     id="path923"
     d="m 575.69025,77.22226 v 94.61349 L 558.79246,158.8556 497.97455,111.96186 v 59.87389 H 481.07676 V 77.50546 l 16.89779,12.98015 60.81791,46.89374 v -60.2751 z"
     class="st1" /><path
     style="fill:#666666;fill-opacity:1;stroke-width:2.36003"
     id="path925"
     d="m 589.57621,171.62335 h 0.25961 l -0.25961,0.2596 z m 94.8967,-94.5899 -36.62763,47.43655 36.48603,47.17695 h -21.35826 l -25.81869,-33.37079 -25.8187,33.37079 H 589.97742 L 626.34543,124.47 589.71781,77.03345 h 21.35824 l 25.96031,33.65399 25.96029,-33.65399 h 21.21666 z m -0.2832,94.8731 -0.14161,-0.2596 h 0.14161 z"
     class="st1" /><text
     xml:space="preserve"
     style="font-stretch:condensed;font-size:11.5471px;line-height:1.25;font-family:Arial;-inkscape-font-specification:'Arial Condensed';letter-spacing:0px;word-spacing:0px;fill:#666666;fill-opacity:1;stroke-width:0.618595"
     x="1125.6301"
     y="111.38651"
     id="text1624"
     transform="scale(0.61859538,1.6165656)"><tspan
       sodipodi:role="line"
       id="tspan1622"
       x="1125.6301"
       y="111.38651"
       style="font-style:normal;font-variant:normal;font-weight:normal;font-stretch:normal;font-size:118.77px;font-family:Roboto;-inkscape-font-specification:Roboto;fill:#666666;fill-opacity:1;stroke-width:0.618595">|</tspan></text><text
     xml:space="preserve"
     style="font-stretch:condensed;font-size:128.577px;line-height:1.25;font-family:Arial;-inkscape-font-specification:'Arial Condensed';letter-spacing:0px;word-spacing:0px;fill:#666666;fill-opacity:1;stroke-width:0.669668"
     x="704.12158"
     y="174.94016"
     id="text1634"
     transform="scale(1.0217415,0.97872114)"><tspan
       sodipodi:role="line"
       id="tspan1632"
       x="704.12158"
       y="174.94016"
       style="font-style:normal;font-variant:normal;font-weight:normal;font-stretch:normal;font-size:128.577px;font-family:Roboto;-inkscape-font-specification:Roboto;fill:#666666;fill-opacity:1;stroke-width:0.669668">Offgrid</tspan></text></g></g>
</svg>
